%TF.GenerationSoftware,KiCad,Pcbnew,7.0.7*%
%TF.CreationDate,2023-09-14T14:18:27+01:00*%
%TF.ProjectId,2.00mm-2.54mm Adapter,322e3030-6d6d-42d3-922e-35346d6d2041,rev?*%
%TF.SameCoordinates,Original*%
%TF.FileFunction,Legend,Top*%
%TF.FilePolarity,Positive*%
%FSLAX46Y46*%
G04 Gerber Fmt 4.6, Leading zero omitted, Abs format (unit mm)*
G04 Created by KiCad (PCBNEW 7.0.7) date 2023-09-14 14:18:27*
%MOMM*%
%LPD*%
G01*
G04 APERTURE LIST*
%ADD10C,0.150000*%
%ADD11C,0.120000*%
G04 APERTURE END LIST*
D10*
X127500000Y-100500000D02*
X126500000Y-100000000D01*
X127500000Y-99500000D01*
X127500000Y-100500000D01*
G36*
X127500000Y-100500000D02*
G01*
X126500000Y-100000000D01*
X127500000Y-99500000D01*
X127500000Y-100500000D01*
G37*
X127500000Y-92500000D02*
X126500000Y-92000000D01*
X127500000Y-91500000D01*
X127500000Y-92500000D01*
G36*
X127500000Y-92500000D02*
G01*
X126500000Y-92000000D01*
X127500000Y-91500000D01*
X127500000Y-92500000D01*
G37*
X136500000Y-100000000D02*
X135500000Y-100500000D01*
X135500000Y-99500000D01*
X136500000Y-100000000D01*
G36*
X136500000Y-100000000D02*
G01*
X135500000Y-100500000D01*
X135500000Y-99500000D01*
X136500000Y-100000000D01*
G37*
X136500000Y-92000000D02*
X135500000Y-92500000D01*
X135500000Y-91500000D01*
X136500000Y-92000000D01*
G36*
X136500000Y-92000000D02*
G01*
X135500000Y-92500000D01*
X135500000Y-91500000D01*
X136500000Y-92000000D01*
G37*
X136449942Y-93190477D02*
X136497561Y-93238096D01*
X136497561Y-93238096D02*
X136545180Y-93333334D01*
X136545180Y-93333334D02*
X136545180Y-93571429D01*
X136545180Y-93571429D02*
X136497561Y-93666667D01*
X136497561Y-93666667D02*
X136449942Y-93714286D01*
X136449942Y-93714286D02*
X136354704Y-93761905D01*
X136354704Y-93761905D02*
X136259466Y-93761905D01*
X136259466Y-93761905D02*
X136116609Y-93714286D01*
X136116609Y-93714286D02*
X135545180Y-93142858D01*
X135545180Y-93142858D02*
X135545180Y-93761905D01*
X135640419Y-94190477D02*
X135592800Y-94238096D01*
X135592800Y-94238096D02*
X135545180Y-94190477D01*
X135545180Y-94190477D02*
X135592800Y-94142858D01*
X135592800Y-94142858D02*
X135640419Y-94190477D01*
X135640419Y-94190477D02*
X135545180Y-94190477D01*
X136545180Y-94857143D02*
X136545180Y-94952381D01*
X136545180Y-94952381D02*
X136497561Y-95047619D01*
X136497561Y-95047619D02*
X136449942Y-95095238D01*
X136449942Y-95095238D02*
X136354704Y-95142857D01*
X136354704Y-95142857D02*
X136164228Y-95190476D01*
X136164228Y-95190476D02*
X135926133Y-95190476D01*
X135926133Y-95190476D02*
X135735657Y-95142857D01*
X135735657Y-95142857D02*
X135640419Y-95095238D01*
X135640419Y-95095238D02*
X135592800Y-95047619D01*
X135592800Y-95047619D02*
X135545180Y-94952381D01*
X135545180Y-94952381D02*
X135545180Y-94857143D01*
X135545180Y-94857143D02*
X135592800Y-94761905D01*
X135592800Y-94761905D02*
X135640419Y-94714286D01*
X135640419Y-94714286D02*
X135735657Y-94666667D01*
X135735657Y-94666667D02*
X135926133Y-94619048D01*
X135926133Y-94619048D02*
X136164228Y-94619048D01*
X136164228Y-94619048D02*
X136354704Y-94666667D01*
X136354704Y-94666667D02*
X136449942Y-94714286D01*
X136449942Y-94714286D02*
X136497561Y-94761905D01*
X136497561Y-94761905D02*
X136545180Y-94857143D01*
X136545180Y-95809524D02*
X136545180Y-95904762D01*
X136545180Y-95904762D02*
X136497561Y-96000000D01*
X136497561Y-96000000D02*
X136449942Y-96047619D01*
X136449942Y-96047619D02*
X136354704Y-96095238D01*
X136354704Y-96095238D02*
X136164228Y-96142857D01*
X136164228Y-96142857D02*
X135926133Y-96142857D01*
X135926133Y-96142857D02*
X135735657Y-96095238D01*
X135735657Y-96095238D02*
X135640419Y-96047619D01*
X135640419Y-96047619D02*
X135592800Y-96000000D01*
X135592800Y-96000000D02*
X135545180Y-95904762D01*
X135545180Y-95904762D02*
X135545180Y-95809524D01*
X135545180Y-95809524D02*
X135592800Y-95714286D01*
X135592800Y-95714286D02*
X135640419Y-95666667D01*
X135640419Y-95666667D02*
X135735657Y-95619048D01*
X135735657Y-95619048D02*
X135926133Y-95571429D01*
X135926133Y-95571429D02*
X136164228Y-95571429D01*
X136164228Y-95571429D02*
X136354704Y-95619048D01*
X136354704Y-95619048D02*
X136449942Y-95666667D01*
X136449942Y-95666667D02*
X136497561Y-95714286D01*
X136497561Y-95714286D02*
X136545180Y-95809524D01*
X135545180Y-96571429D02*
X136211847Y-96571429D01*
X136116609Y-96571429D02*
X136164228Y-96619048D01*
X136164228Y-96619048D02*
X136211847Y-96714286D01*
X136211847Y-96714286D02*
X136211847Y-96857143D01*
X136211847Y-96857143D02*
X136164228Y-96952381D01*
X136164228Y-96952381D02*
X136068990Y-97000000D01*
X136068990Y-97000000D02*
X135545180Y-97000000D01*
X136068990Y-97000000D02*
X136164228Y-97047619D01*
X136164228Y-97047619D02*
X136211847Y-97142857D01*
X136211847Y-97142857D02*
X136211847Y-97285714D01*
X136211847Y-97285714D02*
X136164228Y-97380953D01*
X136164228Y-97380953D02*
X136068990Y-97428572D01*
X136068990Y-97428572D02*
X135545180Y-97428572D01*
X135545180Y-97904762D02*
X136211847Y-97904762D01*
X136116609Y-97904762D02*
X136164228Y-97952381D01*
X136164228Y-97952381D02*
X136211847Y-98047619D01*
X136211847Y-98047619D02*
X136211847Y-98190476D01*
X136211847Y-98190476D02*
X136164228Y-98285714D01*
X136164228Y-98285714D02*
X136068990Y-98333333D01*
X136068990Y-98333333D02*
X135545180Y-98333333D01*
X136068990Y-98333333D02*
X136164228Y-98380952D01*
X136164228Y-98380952D02*
X136211847Y-98476190D01*
X136211847Y-98476190D02*
X136211847Y-98619047D01*
X136211847Y-98619047D02*
X136164228Y-98714286D01*
X136164228Y-98714286D02*
X136068990Y-98761905D01*
X136068990Y-98761905D02*
X135545180Y-98761905D01*
X126550057Y-98809522D02*
X126502438Y-98761903D01*
X126502438Y-98761903D02*
X126454819Y-98666665D01*
X126454819Y-98666665D02*
X126454819Y-98428570D01*
X126454819Y-98428570D02*
X126502438Y-98333332D01*
X126502438Y-98333332D02*
X126550057Y-98285713D01*
X126550057Y-98285713D02*
X126645295Y-98238094D01*
X126645295Y-98238094D02*
X126740533Y-98238094D01*
X126740533Y-98238094D02*
X126883390Y-98285713D01*
X126883390Y-98285713D02*
X127454819Y-98857141D01*
X127454819Y-98857141D02*
X127454819Y-98238094D01*
X127359580Y-97809522D02*
X127407200Y-97761903D01*
X127407200Y-97761903D02*
X127454819Y-97809522D01*
X127454819Y-97809522D02*
X127407200Y-97857141D01*
X127407200Y-97857141D02*
X127359580Y-97809522D01*
X127359580Y-97809522D02*
X127454819Y-97809522D01*
X126454819Y-96857142D02*
X126454819Y-97333332D01*
X126454819Y-97333332D02*
X126931009Y-97380951D01*
X126931009Y-97380951D02*
X126883390Y-97333332D01*
X126883390Y-97333332D02*
X126835771Y-97238094D01*
X126835771Y-97238094D02*
X126835771Y-96999999D01*
X126835771Y-96999999D02*
X126883390Y-96904761D01*
X126883390Y-96904761D02*
X126931009Y-96857142D01*
X126931009Y-96857142D02*
X127026247Y-96809523D01*
X127026247Y-96809523D02*
X127264342Y-96809523D01*
X127264342Y-96809523D02*
X127359580Y-96857142D01*
X127359580Y-96857142D02*
X127407200Y-96904761D01*
X127407200Y-96904761D02*
X127454819Y-96999999D01*
X127454819Y-96999999D02*
X127454819Y-97238094D01*
X127454819Y-97238094D02*
X127407200Y-97333332D01*
X127407200Y-97333332D02*
X127359580Y-97380951D01*
X126788152Y-95952380D02*
X127454819Y-95952380D01*
X126407200Y-96190475D02*
X127121485Y-96428570D01*
X127121485Y-96428570D02*
X127121485Y-95809523D01*
X127454819Y-95428570D02*
X126788152Y-95428570D01*
X126883390Y-95428570D02*
X126835771Y-95380951D01*
X126835771Y-95380951D02*
X126788152Y-95285713D01*
X126788152Y-95285713D02*
X126788152Y-95142856D01*
X126788152Y-95142856D02*
X126835771Y-95047618D01*
X126835771Y-95047618D02*
X126931009Y-94999999D01*
X126931009Y-94999999D02*
X127454819Y-94999999D01*
X126931009Y-94999999D02*
X126835771Y-94952380D01*
X126835771Y-94952380D02*
X126788152Y-94857142D01*
X126788152Y-94857142D02*
X126788152Y-94714285D01*
X126788152Y-94714285D02*
X126835771Y-94619046D01*
X126835771Y-94619046D02*
X126931009Y-94571427D01*
X126931009Y-94571427D02*
X127454819Y-94571427D01*
X127454819Y-94095237D02*
X126788152Y-94095237D01*
X126883390Y-94095237D02*
X126835771Y-94047618D01*
X126835771Y-94047618D02*
X126788152Y-93952380D01*
X126788152Y-93952380D02*
X126788152Y-93809523D01*
X126788152Y-93809523D02*
X126835771Y-93714285D01*
X126835771Y-93714285D02*
X126931009Y-93666666D01*
X126931009Y-93666666D02*
X127454819Y-93666666D01*
X126931009Y-93666666D02*
X126835771Y-93619047D01*
X126835771Y-93619047D02*
X126788152Y-93523809D01*
X126788152Y-93523809D02*
X126788152Y-93380952D01*
X126788152Y-93380952D02*
X126835771Y-93285713D01*
X126835771Y-93285713D02*
X126931009Y-93238094D01*
X126931009Y-93238094D02*
X127454819Y-93238094D01*
D11*
%TO.C,J102*%
X119670000Y-70410000D02*
X121000000Y-70410000D01*
X119670000Y-71740000D02*
X119670000Y-70410000D01*
X119670000Y-73010000D02*
X119670000Y-121330000D01*
X119670000Y-73010000D02*
X122270000Y-73010000D01*
X119670000Y-121330000D02*
X124870000Y-121330000D01*
X122270000Y-70410000D02*
X124870000Y-70410000D01*
X122270000Y-73010000D02*
X122270000Y-70410000D01*
X124870000Y-70410000D02*
X124870000Y-121330000D01*
%TO.C,J101*%
X137940000Y-75940000D02*
X139000000Y-75940000D01*
X137940000Y-77000000D02*
X137940000Y-75940000D01*
X137940000Y-78000000D02*
X137940000Y-116060000D01*
X137940000Y-78000000D02*
X140000000Y-78000000D01*
X137940000Y-116060000D02*
X142060000Y-116060000D01*
X140000000Y-75940000D02*
X142060000Y-75940000D01*
X140000000Y-78000000D02*
X140000000Y-75940000D01*
X142060000Y-75940000D02*
X142060000Y-116060000D01*
%TD*%
M02*
