%TF.GenerationSoftware,KiCad,Pcbnew,7.0.7*%
%TF.CreationDate,2023-09-01T11:36:51+01:00*%
%TF.ProjectId,2.00mm-2.54mm Adapter,322e3030-6d6d-42d3-922e-35346d6d2041,rev?*%
%TF.SameCoordinates,Original*%
%TF.FileFunction,Copper,L2,Bot*%
%TF.FilePolarity,Positive*%
%FSLAX46Y46*%
G04 Gerber Fmt 4.6, Leading zero omitted, Abs format (unit mm)*
G04 Created by KiCad (PCBNEW 7.0.7) date 2023-09-01 11:36:51*
%MOMM*%
%LPD*%
G01*
G04 APERTURE LIST*
%TA.AperFunction,ComponentPad*%
%ADD10O,1.700000X1.700000*%
%TD*%
%TA.AperFunction,ComponentPad*%
%ADD11R,1.700000X1.700000*%
%TD*%
%TA.AperFunction,ComponentPad*%
%ADD12O,1.350000X1.350000*%
%TD*%
%TA.AperFunction,ComponentPad*%
%ADD13R,1.350000X1.350000*%
%TD*%
G04 APERTURE END LIST*
D10*
%TO.P,J102,40,Pin_40*%
%TO.N,/R20*%
X123540000Y-120000000D03*
%TO.P,J102,39,Pin_39*%
%TO.N,/L20*%
X121000000Y-120000000D03*
%TO.P,J102,38,Pin_38*%
%TO.N,/R19*%
X123540000Y-117460000D03*
%TO.P,J102,37,Pin_37*%
%TO.N,/L19*%
X121000000Y-117460000D03*
%TO.P,J102,36,Pin_36*%
%TO.N,/R18*%
X123540000Y-114920000D03*
%TO.P,J102,35,Pin_35*%
%TO.N,/L18*%
X121000000Y-114920000D03*
%TO.P,J102,34,Pin_34*%
%TO.N,/R17*%
X123540000Y-112380000D03*
%TO.P,J102,33,Pin_33*%
%TO.N,/L17*%
X121000000Y-112380000D03*
%TO.P,J102,32,Pin_32*%
%TO.N,/R16*%
X123540000Y-109840000D03*
%TO.P,J102,31,Pin_31*%
%TO.N,/L16*%
X121000000Y-109840000D03*
%TO.P,J102,30,Pin_30*%
%TO.N,/R15*%
X123540000Y-107300000D03*
%TO.P,J102,29,Pin_29*%
%TO.N,/L15*%
X121000000Y-107300000D03*
%TO.P,J102,28,Pin_28*%
%TO.N,/R14*%
X123540000Y-104760000D03*
%TO.P,J102,27,Pin_27*%
%TO.N,/L14*%
X121000000Y-104760000D03*
%TO.P,J102,26,Pin_26*%
%TO.N,/R13*%
X123540000Y-102220000D03*
%TO.P,J102,25,Pin_25*%
%TO.N,/L13*%
X121000000Y-102220000D03*
%TO.P,J102,24,Pin_24*%
%TO.N,/R12*%
X123540000Y-99680000D03*
%TO.P,J102,23,Pin_23*%
%TO.N,/L12*%
X121000000Y-99680000D03*
%TO.P,J102,22,Pin_22*%
%TO.N,/R11*%
X123540000Y-97140000D03*
%TO.P,J102,21,Pin_21*%
%TO.N,/L11*%
X121000000Y-97140000D03*
%TO.P,J102,20,Pin_20*%
%TO.N,/R10*%
X123540000Y-94600000D03*
%TO.P,J102,19,Pin_19*%
%TO.N,/L10*%
X121000000Y-94600000D03*
%TO.P,J102,18,Pin_18*%
%TO.N,/R9*%
X123540000Y-92060000D03*
%TO.P,J102,17,Pin_17*%
%TO.N,/L9*%
X121000000Y-92060000D03*
%TO.P,J102,16,Pin_16*%
%TO.N,/R8*%
X123540000Y-89520000D03*
%TO.P,J102,15,Pin_15*%
%TO.N,/L8*%
X121000000Y-89520000D03*
%TO.P,J102,14,Pin_14*%
%TO.N,/R7*%
X123540000Y-86980000D03*
%TO.P,J102,13,Pin_13*%
%TO.N,/L7*%
X121000000Y-86980000D03*
%TO.P,J102,12,Pin_12*%
%TO.N,/R6*%
X123540000Y-84440000D03*
%TO.P,J102,11,Pin_11*%
%TO.N,/L6*%
X121000000Y-84440000D03*
%TO.P,J102,10,Pin_10*%
%TO.N,/R5*%
X123540000Y-81900000D03*
%TO.P,J102,9,Pin_9*%
%TO.N,/L5*%
X121000000Y-81900000D03*
%TO.P,J102,8,Pin_8*%
%TO.N,/R4*%
X123540000Y-79360000D03*
%TO.P,J102,7,Pin_7*%
%TO.N,/L4*%
X121000000Y-79360000D03*
%TO.P,J102,6,Pin_6*%
%TO.N,/R3*%
X123540000Y-76820000D03*
%TO.P,J102,5,Pin_5*%
%TO.N,/L3*%
X121000000Y-76820000D03*
%TO.P,J102,4,Pin_4*%
%TO.N,/R2*%
X123540000Y-74280000D03*
%TO.P,J102,3,Pin_3*%
%TO.N,/L2*%
X121000000Y-74280000D03*
%TO.P,J102,2,Pin_2*%
%TO.N,/R1*%
X123540000Y-71740000D03*
D11*
%TO.P,J102,1,Pin_1*%
%TO.N,/L1*%
X121000000Y-71740000D03*
%TD*%
D12*
%TO.P,J101,40,Pin_40*%
%TO.N,/R20*%
X141000000Y-115000000D03*
%TO.P,J101,39,Pin_39*%
%TO.N,/L20*%
X139000000Y-115000000D03*
%TO.P,J101,38,Pin_38*%
%TO.N,/R19*%
X141000000Y-113000000D03*
%TO.P,J101,37,Pin_37*%
%TO.N,/L19*%
X139000000Y-113000000D03*
%TO.P,J101,36,Pin_36*%
%TO.N,/R18*%
X141000000Y-111000000D03*
%TO.P,J101,35,Pin_35*%
%TO.N,/L18*%
X139000000Y-111000000D03*
%TO.P,J101,34,Pin_34*%
%TO.N,/R17*%
X141000000Y-109000000D03*
%TO.P,J101,33,Pin_33*%
%TO.N,/L17*%
X139000000Y-109000000D03*
%TO.P,J101,32,Pin_32*%
%TO.N,/R16*%
X141000000Y-107000000D03*
%TO.P,J101,31,Pin_31*%
%TO.N,/L16*%
X139000000Y-107000000D03*
%TO.P,J101,30,Pin_30*%
%TO.N,/R15*%
X141000000Y-105000000D03*
%TO.P,J101,29,Pin_29*%
%TO.N,/L15*%
X139000000Y-105000000D03*
%TO.P,J101,28,Pin_28*%
%TO.N,/R14*%
X141000000Y-103000000D03*
%TO.P,J101,27,Pin_27*%
%TO.N,/L14*%
X139000000Y-103000000D03*
%TO.P,J101,26,Pin_26*%
%TO.N,/R13*%
X141000000Y-101000000D03*
%TO.P,J101,25,Pin_25*%
%TO.N,/L13*%
X139000000Y-101000000D03*
%TO.P,J101,24,Pin_24*%
%TO.N,/R12*%
X141000000Y-99000000D03*
%TO.P,J101,23,Pin_23*%
%TO.N,/L12*%
X139000000Y-99000000D03*
%TO.P,J101,22,Pin_22*%
%TO.N,/R11*%
X141000000Y-97000000D03*
%TO.P,J101,21,Pin_21*%
%TO.N,/L11*%
X139000000Y-97000000D03*
%TO.P,J101,20,Pin_20*%
%TO.N,/R10*%
X141000000Y-95000000D03*
%TO.P,J101,19,Pin_19*%
%TO.N,/L10*%
X139000000Y-95000000D03*
%TO.P,J101,18,Pin_18*%
%TO.N,/R9*%
X141000000Y-93000000D03*
%TO.P,J101,17,Pin_17*%
%TO.N,/L9*%
X139000000Y-93000000D03*
%TO.P,J101,16,Pin_16*%
%TO.N,/R8*%
X141000000Y-91000000D03*
%TO.P,J101,15,Pin_15*%
%TO.N,/L8*%
X139000000Y-91000000D03*
%TO.P,J101,14,Pin_14*%
%TO.N,/R7*%
X141000000Y-89000000D03*
%TO.P,J101,13,Pin_13*%
%TO.N,/L7*%
X139000000Y-89000000D03*
%TO.P,J101,12,Pin_12*%
%TO.N,/R6*%
X141000000Y-87000000D03*
%TO.P,J101,11,Pin_11*%
%TO.N,/L6*%
X139000000Y-87000000D03*
%TO.P,J101,10,Pin_10*%
%TO.N,/R5*%
X141000000Y-85000000D03*
%TO.P,J101,9,Pin_9*%
%TO.N,/L5*%
X139000000Y-85000000D03*
%TO.P,J101,8,Pin_8*%
%TO.N,/R4*%
X141000000Y-83000000D03*
%TO.P,J101,7,Pin_7*%
%TO.N,/L4*%
X139000000Y-83000000D03*
%TO.P,J101,6,Pin_6*%
%TO.N,/R3*%
X141000000Y-81000000D03*
%TO.P,J101,5,Pin_5*%
%TO.N,/L3*%
X139000000Y-81000000D03*
%TO.P,J101,4,Pin_4*%
%TO.N,/R2*%
X141000000Y-79000000D03*
%TO.P,J101,3,Pin_3*%
%TO.N,/L2*%
X139000000Y-79000000D03*
%TO.P,J101,2,Pin_2*%
%TO.N,/R1*%
X141000000Y-77000000D03*
D13*
%TO.P,J101,1,Pin_1*%
%TO.N,/L1*%
X139000000Y-77000000D03*
%TD*%
M02*
