M48
; DRILL file {KiCad 7.0.7} date Fri Sep  1 11:36:53 2023
; FORMAT={-:-/ absolute / inch / decimal}
; #@! TF.CreationDate,2023-09-01T11:36:53+01:00
; #@! TF.GenerationSoftware,Kicad,Pcbnew,7.0.7
; #@! TF.FileFunction,Plated,1,2,PTH
FMAT,2
INCH
; #@! TA.AperFunction,Plated,PTH,ComponentDrill
T1C0.0315
; #@! TA.AperFunction,Plated,PTH,ComponentDrill
T2C0.0394
%
G90
G05
T1
X5.4724Y-3.0315
X5.4724Y-3.1102
X5.4724Y-3.189
X5.4724Y-3.2677
X5.4724Y-3.3465
X5.4724Y-3.4252
X5.4724Y-3.5039
X5.4724Y-3.5827
X5.4724Y-3.6614
X5.4724Y-3.7402
X5.4724Y-3.8189
X5.4724Y-3.8976
X5.4724Y-3.9764
X5.4724Y-4.0551
X5.4724Y-4.1339
X5.4724Y-4.2126
X5.4724Y-4.2913
X5.4724Y-4.3701
X5.4724Y-4.4488
X5.4724Y-4.5276
X5.5512Y-3.0315
X5.5512Y-3.1102
X5.5512Y-3.189
X5.5512Y-3.2677
X5.5512Y-3.3465
X5.5512Y-3.4252
X5.5512Y-3.5039
X5.5512Y-3.5827
X5.5512Y-3.6614
X5.5512Y-3.7402
X5.5512Y-3.8189
X5.5512Y-3.8976
X5.5512Y-3.9764
X5.5512Y-4.0551
X5.5512Y-4.1339
X5.5512Y-4.2126
X5.5512Y-4.2913
X5.5512Y-4.3701
X5.5512Y-4.4488
X5.5512Y-4.5276
T2
X4.7638Y-2.8244
X4.7638Y-2.9244
X4.7638Y-3.0244
X4.7638Y-3.1244
X4.7638Y-3.2244
X4.7638Y-3.3244
X4.7638Y-3.4244
X4.7638Y-3.5244
X4.7638Y-3.6244
X4.7638Y-3.7244
X4.7638Y-3.8244
X4.7638Y-3.9244
X4.7638Y-4.0244
X4.7638Y-4.1244
X4.7638Y-4.2244
X4.7638Y-4.3244
X4.7638Y-4.4244
X4.7638Y-4.5244
X4.7638Y-4.6244
X4.7638Y-4.7244
X4.8638Y-2.8244
X4.8638Y-2.9244
X4.8638Y-3.0244
X4.8638Y-3.1244
X4.8638Y-3.2244
X4.8638Y-3.3244
X4.8638Y-3.4244
X4.8638Y-3.5244
X4.8638Y-3.6244
X4.8638Y-3.7244
X4.8638Y-3.8244
X4.8638Y-3.9244
X4.8638Y-4.0244
X4.8638Y-4.1244
X4.8638Y-4.2244
X4.8638Y-4.3244
X4.8638Y-4.4244
X4.8638Y-4.5244
X4.8638Y-4.6244
X4.8638Y-4.7244
T0
M30
