%TF.GenerationSoftware,KiCad,Pcbnew,7.0.7*%
%TF.CreationDate,2023-09-14T14:18:27+01:00*%
%TF.ProjectId,2.00mm-2.54mm Adapter,322e3030-6d6d-42d3-922e-35346d6d2041,rev?*%
%TF.SameCoordinates,Original*%
%TF.FileFunction,Soldermask,Top*%
%TF.FilePolarity,Negative*%
%FSLAX46Y46*%
G04 Gerber Fmt 4.6, Leading zero omitted, Abs format (unit mm)*
G04 Created by KiCad (PCBNEW 7.0.7) date 2023-09-14 14:18:27*
%MOMM*%
%LPD*%
G01*
G04 APERTURE LIST*
%ADD10R,1.700000X1.700000*%
%ADD11O,1.700000X1.700000*%
%ADD12C,3.200000*%
%ADD13R,1.350000X1.350000*%
%ADD14O,1.350000X1.350000*%
G04 APERTURE END LIST*
D10*
%TO.C,J102*%
X121000000Y-71740000D03*
D11*
X123540000Y-71740000D03*
X121000000Y-74280000D03*
X123540000Y-74280000D03*
X121000000Y-76820000D03*
X123540000Y-76820000D03*
X121000000Y-79360000D03*
X123540000Y-79360000D03*
X121000000Y-81900000D03*
X123540000Y-81900000D03*
X121000000Y-84440000D03*
X123540000Y-84440000D03*
X121000000Y-86980000D03*
X123540000Y-86980000D03*
X121000000Y-89520000D03*
X123540000Y-89520000D03*
X121000000Y-92060000D03*
X123540000Y-92060000D03*
X121000000Y-94600000D03*
X123540000Y-94600000D03*
X121000000Y-97140000D03*
X123540000Y-97140000D03*
X121000000Y-99680000D03*
X123540000Y-99680000D03*
X121000000Y-102220000D03*
X123540000Y-102220000D03*
X121000000Y-104760000D03*
X123540000Y-104760000D03*
X121000000Y-107300000D03*
X123540000Y-107300000D03*
X121000000Y-109840000D03*
X123540000Y-109840000D03*
X121000000Y-112380000D03*
X123540000Y-112380000D03*
X121000000Y-114920000D03*
X123540000Y-114920000D03*
X121000000Y-117460000D03*
X123540000Y-117460000D03*
X121000000Y-120000000D03*
X123540000Y-120000000D03*
%TD*%
D12*
%TO.C,H101*%
X140000000Y-72000000D03*
%TD*%
%TO.C,H102*%
X140000000Y-120000000D03*
%TD*%
D13*
%TO.C,J101*%
X139000000Y-77000000D03*
D14*
X141000000Y-77000000D03*
X139000000Y-79000000D03*
X141000000Y-79000000D03*
X139000000Y-81000000D03*
X141000000Y-81000000D03*
X139000000Y-83000000D03*
X141000000Y-83000000D03*
X139000000Y-85000000D03*
X141000000Y-85000000D03*
X139000000Y-87000000D03*
X141000000Y-87000000D03*
X139000000Y-89000000D03*
X141000000Y-89000000D03*
X139000000Y-91000000D03*
X141000000Y-91000000D03*
X139000000Y-93000000D03*
X141000000Y-93000000D03*
X139000000Y-95000000D03*
X141000000Y-95000000D03*
X139000000Y-97000000D03*
X141000000Y-97000000D03*
X139000000Y-99000000D03*
X141000000Y-99000000D03*
X139000000Y-101000000D03*
X141000000Y-101000000D03*
X139000000Y-103000000D03*
X141000000Y-103000000D03*
X139000000Y-105000000D03*
X141000000Y-105000000D03*
X139000000Y-107000000D03*
X141000000Y-107000000D03*
X139000000Y-109000000D03*
X141000000Y-109000000D03*
X139000000Y-111000000D03*
X141000000Y-111000000D03*
X139000000Y-113000000D03*
X141000000Y-113000000D03*
X139000000Y-115000000D03*
X141000000Y-115000000D03*
%TD*%
M02*
